<?xml version="1.0" encoding="UTF-8"?><svg id="Layer_1" xmlns="http://www.w3.org/2000/svg" viewBox="0 0 300 100"><defs><style>.cls-1{fill:#faab19;}.cls-2{fill:#00ac96;}.cls-3{fill:#ee3f5a;}.cls-4{fill:#f37846;}.cls-5{fill:#a057a1;}.cls-6{fill:#0785ae;}</style></defs><g><path class="cls-2" d="M113.16,56.88c0,3.31-2.36,5.22-6.69,5.22h-7.13v-19.58h6.57c3.97,0,6.39,1.76,6.39,5.16,0,2.9-2.15,3.88-3.28,4.09v.06c1.58,.27,4.15,1.46,4.15,5.04Zm-7.49-12.74h-4.45v7.07h5.07c2.72,0,4.09-1.55,4.09-3.43,0-2.27-1.4-3.64-4.72-3.64Zm5.61,12.57c0-2.66-1.97-4.03-4.87-4.03h-5.19v7.82h5.04c3.04,0,5.01-1.22,5.01-3.79Z"/><path class="cls-4" d="M131.28,42.52h1.85v19.58h-1.85v-19.58Z"/><path class="cls-3" d="M169.31,52.31c0,6.18-3.79,9.94-9.01,9.94s-9.01-3.76-9.01-9.94,3.82-9.97,9.01-9.97,9.01,3.76,9.01,9.97Zm-1.88,0c0-5.13-3.01-8.33-7.13-8.33s-7.1,3.19-7.1,8.33,3.01,8.3,7.1,8.3,7.13-3.16,7.13-8.3Z"/><path class="cls-4" d="M206.53,62.1h-1.85l.03-14.3c0-.78,.06-1.82,.09-1.97l-.09-.03c-.09,.24-.39,1.22-.63,1.76l-6.45,14.6h-1.19l-6.6-14.71c-.39-.84-.54-1.52-.57-1.64l-.09,.03c.03,.18,.09,1.25,.09,1.97l.03,14.3h-1.85v-19.58h2.12l6.6,14.86c.3,.66,.72,1.73,.84,2.15h.06c.12-.42,.57-1.49,.87-2.15l6.54-14.86h2.06v19.58Z"/><path class="cls-6" d="M227.73,44.13v6.98h9.01v1.58h-9.01v7.79h10v1.61h-11.85v-19.58h11.85v1.61h-10Z"/><path class="cls-4" d="M261.25,43.98c-2.63,0-4.42,1.34-4.42,3.46,0,5.07,11.16,2.39,11.16,9.76,0,3.01-2.63,5.04-6.75,5.04-3.64,0-5.97-1.31-7.1-2.27l1.16-1.46c.93,.78,2.72,2.09,5.94,2.09,3.04,0,4.89-1.37,4.89-3.4,0-5.85-11.19-2.9-11.19-9.73,0-3.07,2.6-5.13,6.3-5.13,4.81,0,6.09,2.95,6.57,4.42l-1.79,.45c-.27-1.01-1.46-3.22-4.78-3.22Z"/></g><g><path class="cls-1" d="M52.86,76.98c-15.36,0-27.86-12.5-27.86-27.86s12.5-27.86,27.86-27.86,27.86,12.5,27.86,27.86-12.5,27.86-27.86,27.86Zm0-54.35c-14.61,0-26.49,11.88-26.49,26.49s11.88,26.49,26.49,26.49,26.49-11.88,26.49-26.49-11.88-26.49-26.49-26.49Z"/><path class="cls-5" d="M53.44,68.9c-1.32,0-2.55-.09-3.63-.23-4.07-.51-6.92-1.65-7.04-1.7l.51-1.27c.11,.04,11.19,4.43,20.28-.58,5.7-3.15,9.46-9.31,11.19-18.31-2.08-.55-9.38-2.18-16.35-.24l-.37-1.32c8.59-2.4,17.34,.3,17.7,.41l.57,.18-.11,.59c-1.74,9.77-5.78,16.45-11.99,19.88-3.61,1.99-7.48,2.58-10.78,2.58Z"/><rect class="cls-5" x="40.41" y="55.63" width="37.66" height="1.37" transform="translate(-20.68 39.21) rotate(-31.47)"/><rect class="cls-5" x="68.89" y="49.15" width="1.37" height="8.27" transform="translate(1.3 108.22) rotate(-76.27)"/><rect class="cls-5" x="64.75" y="51.53" width="1.37" height="12.04" transform="translate(-5.05 108.79) rotate(-77.35)"/><rect class="cls-5" x="59.6" y="54.51" width="1.37" height="14.43" transform="translate(-14.73 104.37) rotate(-75.3)"/><rect class="cls-5" x="53.48" y="58.14" width="1.37" height="14.43" transform="translate(-21.77 103.3) rotate(-76.9)"/><path class="cls-2" d="M42.78,66.95l-.32-.41c-5.39-6.81-7.42-13.54-6.04-20,1.28-6,5.32-10.62,8.49-13.44,3.41-3.04,6.48-4.65,6.61-4.72l.53-.28,.34,.49c5.67,8.14,7.55,15.72,5.58,22.54-1.61,5.55-5.52,9.51-8.52,11.85-3.24,2.52-6.06,3.73-6.18,3.78l-.48,.2Zm8.84-37.07c-1.01,.59-3.35,2.05-5.83,4.26-3,2.68-6.83,7.06-8.03,12.69-1.26,5.92,.57,12.12,5.45,18.44,2.14-1.03,10.92-5.75,13.46-14.53,1.81-6.26,.11-13.27-5.04-20.86Z"/><rect class="cls-2" x="28.54" y="46.88" width="37.66" height="1.37" transform="translate(-9.97 82.49) rotate(-76.47)"/><rect class="cls-2" x="48.4" y="37.44" width="8.27" height="1.37" transform="translate(-12.16 32.81) rotate(-31.27)"/><rect class="cls-2" x="46.6" y="43.38" width="12.04" height="1.37" transform="translate(-15.41 34.99) rotate(-32.35)"/><rect class="cls-2" x="44.72" y="49.98" width="14.43" height="1.37" transform="translate(-18.47 33.12) rotate(-30.3)"/><rect class="cls-2" x="42.96" y="56.87" width="14.43" height="1.37" transform="translate(-22.83 35.2) rotate(-31.9)"/></g></svg>