<?xml version="1.0" encoding="UTF-8"?><svg id="Layer_1" xmlns="http://www.w3.org/2000/svg" viewBox="0 0 300 100"><defs><style>.cls-1{stroke:#faab19;}.cls-1,.cls-2,.cls-3{fill:none;stroke-miterlimit:10;stroke-width:3px;}.cls-2{stroke:#00ac96;}.cls-3{stroke:#a057a1;}.cls-4{fill:#00ac96;}.cls-5{fill:#ee3f5a;}.cls-6{fill:#f37846;}.cls-7{fill:#0785ae;}</style></defs><g><path class="cls-4" d="M131.21,55.75c0,3.19-2.27,5.01-6.33,5.01h-7.73v-18.48h6.97c3.92,0,6.27,1.79,6.27,4.98,0,2.74-1.9,3.61-2.97,3.78v.08c1.26,.2,3.78,1.43,3.78,4.62Zm-7.76-10.72h-2.8v5.04h3.05c2.07,0,3.16-1.04,3.16-2.49,0-1.65-1.09-2.55-3.42-2.55Zm4.2,10.33c0-1.9-1.54-2.83-3.61-2.83h-3.39v5.49h3.64c1.96,0,3.36-.84,3.36-2.66Z"/><path class="cls-6" d="M147.26,42.28h3.5v18.48h-3.5v-18.48Z"/><path class="cls-5" d="M184.64,51.52c0,5.77-3.67,9.41-8.9,9.41s-8.88-3.64-8.88-9.41,3.7-9.44,8.88-9.44,8.9,3.64,8.9,9.44Zm-3.56,0c0-3.98-2.24-6.36-5.35-6.36s-5.32,2.38-5.32,6.36,2.24,6.36,5.32,6.36,5.35-2.41,5.35-6.36Z"/><path class="cls-6" d="M220.4,60.76h-3.5l.03-10.25c0-.81,.08-2.13,.14-2.27l-.14-.06c-.06,.25-.39,1.37-.62,1.85l-4.73,10.81h-1.96l-4.84-10.92c-.36-.76-.56-1.6-.59-1.74l-.11,.06c.03,.14,.11,1.46,.11,2.27l.06,10.25h-3.5v-18.48h3.81l4.84,10.56c.48,1.06,1.06,2.6,1.2,3.05h.08c.11-.45,.76-1.99,1.23-3.05l4.79-10.56h3.7v18.48Z"/><path class="cls-7" d="M240.95,45.2v4.7h7.42v2.8h-7.42v5.15h8.48v2.91h-12.01v-18.48h12.01v2.91h-8.48Z"/><path class="cls-6" d="M271.67,45.06c-1.85,0-3,.87-3,2.27,0,3.56,9.77,1.62,9.77,8.54,0,2.91-2.44,5.1-6.89,5.1-3.67,0-6.19-1.54-7.25-2.46l2.1-2.58c.81,.73,2.69,2.13,5.24,2.13,2.13,0,3.28-.81,3.28-2.13,0-4.09-9.77-1.99-9.77-8.43,0-3.08,2.58-5.4,6.44-5.4,4.96,0,6.36,2.97,6.72,4.76l-3.19,.78c-.08-1.01-1.09-2.58-3.44-2.58Z"/></g><g><circle class="cls-1" cx="57.65" cy="50" r="33.01"/><path class="cls-3" d="M45.72,70.9s32.76,13.32,39.49-24.31c0,0-10.71-3.37-21.03-.49"/><line class="cls-3" x1="45.89" y1="70.67" x2="84.9" y2="46.79"/><line class="cls-3" x1="82.83" y1="56.25" x2="73.07" y2="53.86"/><line class="cls-3" x1="80.06" y1="61.84" x2="65.79" y2="58.63"/><line class="cls-3" x1="75.14" y1="67.53" x2="58.19" y2="63.09"/><line class="cls-3" x1="67.77" y1="71.7" x2="50.7" y2="67.73"/><path class="cls-2" d="M56.4,25.52s-32.87,17.14-10.73,45.11c0,0,32.58-13.75,10.73-45.11Z"/><line class="cls-2" x1="45.63" y1="70.34" x2="56.33" y2="25.87"/><line class="cls-2" x1="61.55" y1="34.03" x2="52.96" y2="39.24"/><line class="cls-2" x1="63.54" y1="39.94" x2="51.19" y2="47.76"/><line class="cls-2" x1="64.1" y1="47.44" x2="48.96" y2="56.29"/><line class="cls-2" x1="61.83" y1="55.6" x2="46.95" y2="64.86"/></g></svg>