<?xml version="1.0" encoding="UTF-8"?><svg id="Layer_1" xmlns="http://www.w3.org/2000/svg" viewBox="0 0 25 25"><defs><style>.cls-1{fill:#006251;}</style></defs><g id="waRCGA.tif"><path class="cls-1" d="M9.29,24.51c-.42-.08-.84-.13-1.26-.23-2.95-.67-5.34-3.2-5.86-6.2-.66-3.79,1.36-7.38,4.94-8.76,.88-.34,1.8-.51,2.74-.5,.42,0,.73,.27,.73,.69,.01,1.26,.01,2.51,0,3.77,0,.43-.3,.69-.77,.7-1.38,.06-2.46,1.07-2.6,2.45-.13,1.37,.84,2.64,2.2,2.88,1.37,.24,2.71-.61,3.05-1.94,.07-.27,.1-.55,.1-.83,0-5.03,0-10.06,0-15.1,0-.66,.24-.89,.9-.89,1.15,0,2.29,0,3.44,0,.54,0,.8,.25,.82,.8,.08,2.46,1.96,4.36,4.41,4.46,.44,.02,.73,.18,.87,.6v3.98c-.22,.51-.39,.62-.95,.6-1.36-.04-2.67-.34-3.9-.92-.13-.06-.26-.12-.43-.2,0,.13,0,.22,0,.31,0,2.23,.02,4.46,0,6.69-.04,3.45-2.44,6.5-5.77,7.38-.49,.13-.99,.19-1.49,.28h-1.17ZM13.97,1.95v.32c0,4.78,0,9.57,0,14.35,0,2.53-2.19,4.44-4.66,4.09-1.8-.25-3.29-1.79-3.48-3.54-.22-2,.97-3.75,2.7-4.36,.22-.08,.53-.09,.62-.24,.11-.17,.03-.47,.03-.71,0-.52,0-1.04,0-1.6-.16,.02-.28,.03-.41,.06-3.4,.58-5.77,3.83-5.27,7.23,.51,3.45,3.56,5.85,7.04,5.52,3.19-.3,5.73-3.03,5.77-6.23,.03-2.71,0-5.42,0-8.12,0-.32,.08-.59,.37-.75,.3-.16,.58-.08,.85,.11,.89,.63,1.87,1.06,2.93,1.29,.36,.08,.73,.12,1.12,.19,0-.78,0-1.52,0-2.25,0-.15-.1-.14-.2-.16-2.46-.46-4.08-1.89-4.84-4.28-.09-.29-.14-.6-.21-.91h-2.37Z"/></g></svg>