<?xml version="1.0" encoding="UTF-8"?><svg id="Layer_1" xmlns="http://www.w3.org/2000/svg" viewBox="0 0 32 32"><defs><style>.cls-1{fill:#faab19;}.cls-2{fill:#00ac96;}.cls-3{fill:#a057a1;}</style></defs><path class="cls-1" d="M16,30.01c-7.73,0-14.02-6.29-14.02-14.01S8.27,1.99,16,1.99s14.02,6.29,14.02,14.01-6.29,14.01-14.02,14.01Zm0-26.82C8.94,3.2,3.2,8.94,3.2,16s5.74,12.8,12.8,12.8,12.8-5.74,12.8-12.8S23.06,3.2,16,3.2h0Z"/><path class="cls-3" d="M16.28,26.04c-2.91,0-5.23-.92-5.38-.98l.46-1.13c.05,.02,5.42,2.14,9.79-.28,2.68-1.48,4.47-4.37,5.32-8.59-1.25-.31-4.53-.94-7.66-.06l-.33-1.17c4.31-1.21,8.7,.15,8.88,.21l.51,.16-.09,.53c-.87,4.9-2.91,8.26-6.04,9.99-1.81,1-3.74,1.32-5.45,1.32h0Z"/><rect class="cls-3" x="9.84" y="18.95" width="18.58" height="1.22" transform="translate(-7.4 12.87) rotate(-31.49)"/><rect class="cls-3" x="23.62" y="16.03" width="1.22" height="4.05" transform="translate(1.07 37.46) rotate(-76.66)"/><rect class="cls-3" x="21.59" y="17.16" width="1.22" height="5.95" transform="translate(-2.3 37.4) rotate(-77.39)"/><rect class="cls-3" x="19.03" y="18.67" width="1.22" height="7.09" transform="translate(-6.81 35.62) rotate(-75.41)"/><rect class="cls-3" x="16.02" y="20.44" width="1.22" height="7.13" transform="translate(-10.53 34.73) rotate(-76.83)"/><path class="cls-2" d="M10.93,25.11l-.29-.36c-2.72-3.43-3.75-6.84-3.04-10.11,1.23-5.77,7.33-9,7.59-9.13l.48-.25,.31,.44c2.86,4.1,3.8,7.92,2.8,11.37-1.55,5.35-7.17,7.77-7.41,7.87l-.43,.18h0ZM15.29,6.86c-1.41,.86-5.57,3.71-6.49,8.04-.59,2.79,.25,5.71,2.51,8.71,1.28-.65,5.14-2.9,6.3-6.89,.85-2.95,.07-6.27-2.32-9.86h0Z"/><rect class="cls-2" x="3.98" y="14.62" width="18.55" height="1.22" transform="translate(-4.65 24.55) rotate(-76.45)"/><rect class="cls-2" x="13.79" y="9.94" width="4.08" height="1.22" transform="translate(-3.18 9.72) rotate(-31.17)"/><rect class="cls-2" x="12.89" y="12.89" width="5.94" height="1.22" transform="translate(-4.78 10.71) rotate(-32.71)"/><rect class="cls-2" x="11.97" y="16.14" width="7.12" height="1.22" transform="translate(-6.36 10.21) rotate(-30.52)"/><rect class="cls-2" x="11.07" y="19.55" width="7.14" height="1.22" transform="translate(-8.46 10.81) rotate(-31.98)"/></svg>